<svg width="22" height="18" viewBox="0 0 22 18" fill="none" xmlns="http://www.w3.org/2000/svg">
<path d="M21.1618 2.656C20.3984 2.9937 19.5888 3.21548 18.7598 3.314C19.6336 2.79144 20.2875 1.96902 20.5998 1C19.7798 1.488 18.8808 1.83 17.9438 2.015C17.3144 1.34158 16.4802 0.894966 15.5708 0.744588C14.6614 0.594209 13.7277 0.748494 12.9151 1.18346C12.1024 1.61842 11.4562 2.30969 11.0769 3.1498C10.6977 3.9899 10.6066 4.93178 10.8178 5.829C9.15492 5.74566 7.52814 5.31353 6.0431 4.56067C4.55805 3.80781 3.24794 2.75105 2.19781 1.459C1.8261 2.09745 1.63076 2.82323 1.63181 3.562C1.63181 5.012 2.36981 6.293 3.49181 7.043C2.82782 7.0221 2.17844 6.84278 1.59781 6.52V6.572C1.59801 7.5377 1.93218 8.47362 2.54366 9.22106C3.15513 9.96851 4.00629 10.4815 4.95281 10.673C4.33642 10.84 3.69012 10.8647 3.06281 10.745C3.32968 11.5762 3.84982 12.3032 4.5504 12.8241C5.25099 13.345 6.09694 13.6338 6.96981 13.65C6.10229 14.3313 5.10899 14.835 4.04669 15.1322C2.98439 15.4294 1.87394 15.5143 0.778809 15.382C2.69051 16.6114 4.91591 17.2641 7.18881 17.262C14.8818 17.262 19.0888 10.889 19.0888 5.362C19.0888 5.182 19.0838 5 19.0758 4.822C19.8947 4.23017 20.6014 3.49702 21.1628 2.657L21.1618 2.656Z" fill="#899D9D"/>
</svg>
